<svg width="800" height="360" viewBox="110 350 800 360" fill="none" xmlns="http://www.w3.org/2000/svg">
<circle cx="854" cy="401" r="29" fill="#195055"/>
<path d="M868 442C874.348 446.771 879.101 453.778 880.46 461.671C880.638 464.55 880.665 467.389 880.631 470.274C880.638 471.353 880.645 472.433 880.653 473.545C880.67 477.084 880.65 480.621 880.629 484.16C880.63 486.635 880.632 489.111 880.636 491.586C880.639 496.761 880.624 501.936 880.597 507.112C880.563 513.731 880.569 520.35 880.588 526.97C880.598 532.077 880.589 537.184 880.574 542.291C880.569 544.731 880.569 547.172 880.576 549.612C880.581 553.027 880.561 556.441 880.533 559.856C880.54 560.855 880.546 561.854 880.553 562.884C880.434 571.73 877.798 578.996 871.664 585.492C865.242 591.311 858.26 591.837 849.855 591.438C843.415 590.707 839.321 588.83 835.199 583.805C833.665 581.585 832.292 579.368 831 577C830.651 576.393 830.302 575.786 829.942 575.16C828.863 572.686 828.744 570.944 828.733 568.252C828.724 567.3 828.716 566.348 828.707 565.368C828.708 564.33 828.709 563.293 828.709 562.224C828.703 561.126 828.696 560.028 828.689 558.897C828.67 555.26 828.666 551.624 828.664 547.988C828.658 545.46 828.651 542.931 828.644 540.402C828.632 535.097 828.628 529.792 828.629 524.487C828.631 518.371 828.61 512.256 828.578 506.14C828.549 500.243 828.541 494.345 828.543 488.447C828.54 485.945 828.531 483.443 828.516 480.942C828.496 477.435 828.502 473.93 828.514 470.423C828.503 469.396 828.492 468.368 828.48 467.31C828.548 459.461 830.205 453.324 835.312 447.25C844.837 439.276 856.212 434.992 868 442Z" fill="#E9B480"/>
<circle cx="854.5" cy="566.5" r="26.5" fill="#195055"/>
<rect x="828" y="462" width="53" height="105" fill="#195055"/>
<circle cx="854.5" cy="464.5" r="26.5" fill="#195055"/>
<path d="M704.895 443.242C707.033 444.243 707.033 444.243 709.402 443.316C710.688 442.665 710.688 442.665 712 442C712.923 441.537 713.846 441.074 714.797 440.598C715.771 440.091 716.746 439.584 717.75 439.063C732.515 431.635 749.086 429.34 765.137 434.031C783.856 440.365 799.096 451.835 808.344 469.563C812.917 479.054 815.138 487.526 815.177 498.082C815.184 498.869 815.19 499.657 815.197 500.469C815.217 503.06 815.228 505.651 815.238 508.242C815.242 509.131 815.246 510.021 815.251 510.937C815.271 515.64 815.286 520.344 815.295 525.047C815.306 529.892 815.341 534.735 815.38 539.579C815.407 543.318 815.415 547.057 815.418 550.796C815.423 552.581 815.435 554.366 815.453 556.151C815.478 558.655 815.477 561.157 815.47 563.66C815.489 564.753 815.489 564.753 815.509 565.867C815.428 573.9 811.624 580.376 806 586C800.166 590.78 793.01 590.777 785.789 590.445C780.694 589.846 777.667 588.533 774 585C773.439 584.469 772.879 583.938 772.301 583.391C766.49 577.256 764.541 570.34 764.615 562.011C764.61 561.257 764.604 560.503 764.599 559.726C764.589 558.105 764.586 556.483 764.589 554.862C764.594 552.293 764.58 549.725 764.561 547.156C764.518 540.782 764.507 534.409 764.495 528.035C764.483 522.634 764.46 517.234 764.42 511.833C764.406 509.306 764.411 506.78 764.415 504.254C764.406 502.703 764.396 501.152 764.385 499.601C764.391 498.902 764.397 498.203 764.403 497.483C764.349 493.148 763.649 490.446 761 487C756.162 483.347 752.42 482.347 746.363 482.613C741.723 483.373 739.071 485.92 735.865 489.153C733.501 492.762 733.459 495.691 733.533 499.86C733.531 500.637 733.529 501.413 733.526 502.213C733.524 503.893 733.53 505.574 733.545 507.254C733.567 509.921 733.563 512.586 733.552 515.253C733.531 521.877 733.548 528.501 733.574 535.125C733.595 540.722 733.597 546.317 733.571 551.914C733.566 554.529 733.591 557.144 733.616 559.759C733.625 569.305 733.029 576.541 726.321 583.822C720.983 589.098 714.432 591.061 707.062 591.5C699.797 591.24 693.527 588.009 688.562 582.75C682.354 574.237 682.57 565.044 682.589 554.972C682.594 552.445 682.58 549.918 682.561 547.391C682.518 541.121 682.507 534.852 682.495 528.582C682.483 523.267 682.46 517.952 682.42 512.637C682.406 510.154 682.411 507.672 682.415 505.189C682.406 503.661 682.396 502.134 682.385 500.607C682.391 499.922 682.397 499.238 682.403 498.533C682.345 493.975 681.414 490.86 679 487C674.459 483.548 670.921 482.325 665.211 482.617C661.338 483.288 659.155 484.602 656 487C653.165 491.533 652.568 495.388 652.615 500.623C652.61 501.362 652.604 502.101 652.599 502.862C652.589 504.458 652.586 506.054 652.589 507.65C652.594 510.182 652.58 512.713 652.561 515.244C652.524 520.621 652.51 525.998 652.5 531.375C652.488 537.602 652.466 543.829 652.42 550.057C652.406 552.54 652.411 555.024 652.415 557.508C652.406 559.045 652.396 560.582 652.385 562.119C652.391 562.8 652.397 563.482 652.403 564.185C652.302 572.213 649.409 578.467 643.926 584.234C637.526 590.102 631.303 590.774 622.695 590.5C615.143 589.478 610.045 585.749 605.268 579.927C600.216 572.439 601.069 564.23 601.211 555.543C601.216 553.75 601.219 551.957 601.219 550.164C601.227 546.417 601.258 542.672 601.307 538.926C601.369 534.158 601.388 529.392 601.391 524.624C601.396 520.924 601.417 517.223 601.443 513.523C601.455 511.767 601.464 510.011 601.469 508.255C601.53 495.022 602.44 482.591 608.812 470.688C609.167 470.008 609.521 469.329 609.885 468.628C612.503 463.704 615.26 459.162 619 455C619.694 454.203 620.387 453.407 621.102 452.586C643.042 428.93 678.196 425.71 704.895 443.242Z" fill="#3B9293"/>
<circle cx="565.5" cy="570.5" r="24.5" fill="#195055"/>
<path d="M511 433C554.63 433 590 468.37 590 512C590 555.63 554.63 591 511 591C467.37 591 432 555.63 432 512C432 468.37 467.37 433 511 433ZM512 482C494.879 482 481 495.879 481 513C481 530.121 494.879 544 512 544C529.121 544 543 530.121 543 513C543 495.879 529.121 482 512 482Z" fill="#195055"/>
<rect x="553" y="516" width="37" height="55" fill="#195055"/>
<path d="M336.411 421C287.584 421 248 456.997 248 501.405C248 542.268 285.435 599.183 325.857 646.325C331.201 652.558 341.621 652.558 346.968 646.325C387.39 599.183 424.825 542.271 424.825 501.405C424.822 456.997 385.238 421 336.411 421Z" fill="#3B9293"/>
<mask id="mask0_22_22" style="mask-type:alpha" maskUnits="userSpaceOnUse" x="248" y="421" width="177" height="230">
<path d="M336.411 421C287.584 421 248 456.997 248 501.405C248 542.268 285.435 599.183 325.857 646.325C331.201 652.558 341.621 652.558 346.968 646.325C387.39 599.183 424.825 542.271 424.825 501.405C424.822 456.997 385.238 421 336.411 421Z" fill="#3B9293"/>
</mask>
<g mask="url(#mask0_22_22)">
<path d="M270.795 581C231.795 585 270.795 621.594 270.795 621.594L335.295 695.594L433.795 632.594L489 621.594C489 621.594 441 540.5 426.5 537.5C412 534.5 437.5 544 421.5 544C405.5 544 400.5 541.5 376.5 550.5C352.5 559.5 352.5 587.5 331 590.5C309.5 593.5 309.795 577 270.795 581Z" fill="#E9B480"/>
</g>
<circle cx="336.5" cy="500.5" r="51.5" fill="white"/>
<circle cx="315.5" cy="488.5" r="10.5" fill="#3B9293"/>
<circle cx="356.5" cy="488.5" r="10.5" fill="#195055"/>
<path d="M334.516 517.852C334.945 526.036 327.119 526.412 317.467 526.918C307.816 527.424 299.993 527.868 299.564 519.684C299.135 511.5 306.612 504.455 316.264 503.949C325.915 503.444 334.087 509.668 334.516 517.852Z" fill="#3B9293"/>
<path d="M372.606 519.693C372.178 527.877 364.355 527.433 354.703 526.927C345.052 526.421 337.225 526.045 337.654 517.861C338.083 509.677 346.255 503.453 355.907 503.958C365.559 504.464 373.035 511.509 372.606 519.693Z" fill="#195055"/>
<path d="M237.328 437.766C243.811 443.689 246.057 449.206 246.5 457.875C246.272 465.724 243.46 472.02 237.75 477.438C230.523 482.881 222.893 483.41 214.116 483.447C208.978 483.566 206.116 484.675 202 488C196.99 493.427 195.75 497.882 195.76 505.202C195.758 505.908 195.756 506.615 195.754 507.343C195.751 508.871 195.752 510.399 195.756 511.928C195.762 514.355 195.753 516.781 195.739 519.208C195.702 526.107 195.683 533.005 195.695 539.904C195.7 544.131 195.682 548.358 195.649 552.585C195.641 554.187 195.642 555.789 195.653 557.391C195.711 566.377 195.636 574.482 190 582C184.469 587.382 177.801 591.009 170 591.375C162.277 591.013 155.443 587.407 150 582C146.165 576.165 144.85 570.66 144.823 563.737C144.816 563 144.81 562.263 144.803 561.504C144.783 559.06 144.772 556.616 144.762 554.172C144.758 553.333 144.754 552.494 144.749 551.629C144.728 547.177 144.714 542.725 144.705 538.273C144.694 533.71 144.66 529.148 144.62 524.586C144.593 521.05 144.585 517.513 144.582 513.977C144.577 512.298 144.565 510.619 144.547 508.94C144.317 487.022 150.554 468.078 166 452C182.719 435.681 216.133 421.692 237.328 437.766Z" fill="#194F54"/>
</svg>
